# xmcd CD database file
#
# Track frame offsets:
#	183
#	19230
#	36478
#	53088
#
# Disc length: 1102 seconds
#
# Revision: 1
# Processed by: cddbd v1.5.2PL0 Copyright (c) Steve Scherf et al.
# Submitted via: CDex 1.70beta2
#
DISCID=2f044c04
DTITLE=Chris de Burgh - Where We Will Be Going
DYEAR=1992
DGENRE=Rock and Roll
TTITLE0=Where We Will Be Going
TTITLE1=A Celebration
TTITLE2=The Risen Lord (Live)
TTITLE3=The Last Time I Cried (Live)
EXTD=YEAR: 1992
EXTT0=
EXTT1=
EXTT2=
EXTT3=
PLAYORDER=
